<svg width="92" height="105" viewBox="0 0 92 105" fill="none" xmlns="http://www.w3.org/2000/svg">
<path fill-rule="evenodd" clip-rule="evenodd" d="M44.8013 5.76795C45.4201 5.41068 46.1825 5.41068 46.8013 5.76795L85.5045 28.1132C86.1233 28.4705 86.5045 29.1308 86.5045 29.8453V74.5359C86.5045 75.2504 86.1233 75.9107 85.5045 76.2679L46.8013 98.6132C46.1825 98.9705 45.4201 98.9705 44.8013 98.6133L6.09808 76.268C5.47928 75.9107 5.09808 75.2504 5.09808 74.5359V29.8453C5.09808 29.1308 5.47927 28.4705 6.09808 28.1132L44.8013 5.76795ZM7.59808 30.134L45.8013 8.07735L84.0045 30.134V74.2472L45.8013 96.3038L7.59808 74.2472V30.134Z" fill="url(#paint0_linear_34_9)"/>
<path fill-rule="evenodd" clip-rule="evenodd" d="M89.3525 24.4482L48.0513 0.602886C46.659 -0.200961 44.9436 -0.200962 43.5513 0.602886L2.25 24.4482C0.857696 25.252 0 26.7376 0 28.3453V76.0359C0 77.6436 0.857694 79.1292 2.25 79.933L43.5513 103.778C44.9436 104.582 46.659 104.582 48.0513 103.778L89.3525 79.933C90.7448 79.1292 91.6025 77.6436 91.6025 76.0359V28.3453C91.6025 26.7376 90.7448 25.252 89.3525 24.4482ZM44.8013 2.76795C45.4201 2.41068 46.1825 2.41068 46.8013 2.76795L88.1025 26.6132C88.7213 26.9705 89.1025 27.6308 89.1025 28.3453V76.0359C89.1025 76.7504 88.7213 77.4107 88.1025 77.7679L46.8013 101.613C46.1825 101.971 45.4201 101.971 44.8013 101.613L3.5 77.7679C2.8812 77.4107 2.5 76.7504 2.5 76.0359V28.3453C2.5 27.6308 2.8812 26.9705 3.5 26.6132L44.8013 2.76795Z" fill="url(#paint1_linear_34_9)"/>
<path d="M14.1673 41.0087L16.8171 49.0229H16.9215L19.5664 41.0087H21.5948L18.0053 51.1906H15.7283L12.1438 41.0087H14.1673Z" fill="white"/>
<path d="M31.487 46.0996C31.487 47.1967 31.2815 48.1363 30.8706 48.9185C30.4629 49.6974 29.9061 50.294 29.2001 50.7083C28.4975 51.1226 27.7003 51.3298 26.8088 51.3298C25.9172 51.3298 25.1184 51.1226 24.4125 50.7083C23.7098 50.2907 23.153 49.6924 22.742 48.9136C22.3343 48.1314 22.1305 47.1934 22.1305 46.0996C22.1305 45.0026 22.3343 44.0646 22.742 43.2857C23.153 42.5035 23.7098 41.9053 24.4125 41.491C25.1184 41.0767 25.9172 40.8695 26.8088 40.8695C27.7003 40.8695 28.4975 41.0767 29.2001 41.491C29.9061 41.9053 30.4629 42.5035 30.8706 43.2857C31.2815 44.0646 31.487 45.0026 31.487 46.0996ZM29.6326 46.0996C29.6326 45.3274 29.5117 44.6761 29.2697 44.1458C29.0311 43.6122 28.6996 43.2095 28.2754 42.9377C27.8511 42.6626 27.3623 42.5251 26.8088 42.5251C26.2553 42.5251 25.7664 42.6626 25.3422 42.9377C24.9179 43.2095 24.5848 43.6122 24.3429 44.1458C24.1042 44.6761 23.9849 45.3274 23.9849 46.0996C23.9849 46.8719 24.1042 47.5248 24.3429 48.0584C24.5848 48.5888 24.9179 48.9914 25.3422 49.2665C25.7664 49.5383 26.2553 49.6742 26.8088 49.6742C27.3623 49.6742 27.8511 49.5383 28.2754 49.2665C28.6996 48.9914 29.0311 48.5888 29.2697 48.0584C29.5117 47.5248 29.6326 46.8719 29.6326 46.0996Z" fill="white"/>
<path d="M39.6491 41.0087H41.4936V47.6607C41.4936 48.3899 41.3213 49.0312 40.9766 49.5847C40.6352 50.1382 40.1546 50.5708 39.5348 50.8823C38.915 51.1906 38.1908 51.3447 37.3622 51.3447C36.5303 51.3447 35.8044 51.1906 35.1847 50.8823C34.5649 50.5708 34.0843 50.1382 33.7429 49.5847C33.4015 49.0312 33.2308 48.3899 33.2308 47.6607V41.0087H35.0753V47.5066C35.0753 47.9308 35.1681 48.3087 35.3537 48.6401C35.5426 48.9716 35.8078 49.2317 36.1491 49.4207C36.4905 49.6063 36.8949 49.6991 37.3622 49.6991C37.8295 49.6991 38.2339 49.6063 38.5753 49.4207C38.92 49.2317 39.1851 48.9716 39.3707 48.6401C39.5563 48.3087 39.6491 47.9308 39.6491 47.5066V41.0087Z" fill="white"/>
<path d="M52.2136 44.4441H50.3542C50.3012 44.1392 50.2034 43.8691 50.0609 43.6337C49.9184 43.3951 49.7411 43.1929 49.5289 43.0272C49.3168 42.8615 49.0749 42.7372 48.8031 42.6543C48.5346 42.5682 48.2446 42.5251 47.9331 42.5251C47.3796 42.5251 46.889 42.6643 46.4615 42.9427C46.0339 43.2178 45.6992 43.6221 45.4572 44.1558C45.2153 44.6861 45.0943 45.334 45.0943 46.0996C45.0943 46.8785 45.2153 47.5348 45.4572 48.0684C45.7025 48.5987 46.0372 48.9997 46.4615 49.2715C46.889 49.54 47.3779 49.6742 47.9281 49.6742C48.233 49.6742 48.5181 49.6344 48.7832 49.5549C49.0517 49.472 49.292 49.3511 49.5041 49.192C49.7195 49.0329 49.9002 48.8373 50.046 48.6053C50.1951 48.3733 50.2979 48.1082 50.3542 47.8099L52.2136 47.8198C52.144 48.3037 51.9932 48.7578 51.7612 49.182C51.5325 49.6063 51.2325 49.9808 50.8613 50.3056C50.4901 50.6271 50.0559 50.879 49.5588 51.0613C49.0616 51.2403 48.5098 51.3298 47.9032 51.3298C47.0083 51.3298 46.2096 51.1226 45.5069 50.7083C44.8043 50.294 44.2508 49.6958 43.8464 48.9136C43.4421 48.1314 43.2399 47.1934 43.2399 46.0996C43.2399 45.0026 43.4437 44.0646 43.8514 43.2857C44.2591 42.5035 44.8142 41.9053 45.5169 41.491C46.2195 41.0767 47.015 40.8695 47.9032 40.8695C48.47 40.8695 48.997 40.9491 49.4842 41.1082C49.9714 41.2673 50.4056 41.5009 50.7868 41.8092C51.1679 42.1141 51.4811 42.4886 51.7264 42.9327C51.975 43.3736 52.1374 43.8773 52.2136 44.4441Z" fill="white"/>
<path d="M53.9027 51.1906V41.0087H55.7472V45.3191H60.4652V41.0087H62.3146V51.1906H60.4652V46.8653H55.7472V51.1906H53.9027Z" fill="white"/>
<path d="M64.3207 51.1906V41.0087H70.9428V42.5549H66.1651V45.3191H70.5998V46.8653H66.1651V49.6444H70.9826V51.1906H64.3207Z" fill="white"/>
<path d="M72.8246 51.1906V41.0087H76.6428C77.425 41.0087 78.0812 41.1446 78.6115 41.4164C79.1451 41.6882 79.5478 42.0693 79.8196 42.5599C80.0947 43.0471 80.2322 43.6155 80.2322 44.2651C80.2322 44.9181 80.093 45.4848 79.8146 45.9654C79.5395 46.4427 79.1335 46.8122 78.5966 47.0741C78.0597 47.3326 77.4001 47.4619 76.6179 47.4619H73.8984V45.9306H76.3693C76.8267 45.9306 77.2012 45.8676 77.4929 45.7417C77.7846 45.6124 78 45.4252 78.1392 45.1799C78.2817 44.9313 78.353 44.6264 78.353 44.2651C78.353 43.9039 78.2817 43.5956 78.1392 43.3404C77.9967 43.0819 77.7796 42.8863 77.4879 42.7538C77.1963 42.6179 76.8201 42.5499 76.3594 42.5499H74.669V51.1906H72.8246ZM78.0845 46.5769L80.6051 51.1906H78.5469L76.071 46.5769H78.0845Z" fill="white"/>
<path d="M24.5692 57.2815L27.8079 66.4647H27.9357L31.1744 57.2815H32.5593L28.5536 68.1906H27.19L23.1843 57.2815H24.5692Z" fill="white"/>
<path d="M33.7685 68.1906H32.3835L36.3892 57.2815H37.7528L41.7585 68.1906H40.3736L37.1136 59.0073H37.0284L33.7685 68.1906ZM34.2798 63.9292H39.8622V65.1011H34.2798V63.9292Z" fill="white"/>
<path d="M50.6168 57.2815H51.9379V64.5045C51.9379 65.2502 51.7621 65.916 51.4105 66.502C51.0625 67.0844 50.5707 67.5442 49.935 67.8816C49.2994 68.2154 48.5536 68.3823 47.6978 68.3823C46.842 68.3823 46.0962 68.2154 45.4606 67.8816C44.8249 67.5442 44.3313 67.0844 43.9798 66.502C43.6317 65.916 43.4577 65.2502 43.4577 64.5045V57.2815H44.7788V64.3979C44.7788 64.9306 44.896 65.4047 45.1303 65.8202C45.3647 66.2321 45.6985 66.557 46.1317 66.795C46.5685 67.0293 47.0906 67.1465 47.6978 67.1465C48.305 67.1465 48.8271 67.0293 49.2639 66.795C49.7006 66.557 50.0344 66.2321 50.2653 65.8202C50.4996 65.4047 50.6168 64.9306 50.6168 64.3979V57.2815Z" fill="white"/>
<path d="M54.5759 68.1906V57.2815H55.8969V67.0187H60.968V68.1906H54.5759Z" fill="white"/>
<path d="M60.9666 58.4533V57.2815H69.1484V58.4533H65.718V68.1906H64.397V58.4533H60.9666Z" fill="white"/>
<defs>
<linearGradient id="paint0_linear_34_9" x1="45.8008" y1="-20.8094" x2="45.8008" y2="104.191" gradientUnits="userSpaceOnUse">
<stop stop-color="white"/>
<stop offset="0.337687" stop-color="#9B9B9B"/>
<stop offset="0.515029" stop-color="#666666"/>
<stop offset="0.974087" stop-color="white"/>
</linearGradient>
<linearGradient id="paint1_linear_34_9" x1="45.8008" y1="-20.8094" x2="45.8008" y2="104.191" gradientUnits="userSpaceOnUse">
<stop stop-color="white"/>
<stop offset="0.337687" stop-color="#9B9B9B"/>
<stop offset="0.515029" stop-color="#666666"/>
<stop offset="0.974087" stop-color="white"/>
</linearGradient>
</defs>
</svg>
